<svg xmlns="http://www.w3.org/2000/svg" width="64" height="64" viewBox="0 0 64 64">
  <g id="ico-consignado" transform="translate(-526 -1401)">
    <rect id="Retângulo_1770" data-name="Retângulo 1770" width="64" height="64" transform="translate(526 1401)" fill="#0099fa" opacity="0"/>
    <path id="Caminho_3392" data-name="Caminho 3392" d="M53.022,41.267H46.644v6.378h6.378m0-19.133H46.644v6.378h6.378M59.4,54.022H33.889V47.644h6.378V41.267H33.889V34.889h6.378V28.511H33.889V22.133H59.4M27.511,15.756H21.133V9.378h6.378m0,19.133H21.133V22.133h6.378m0,19.133H21.133V34.889h6.378m0,19.133H21.133V47.644h6.378M14.756,15.756H8.378V9.378h6.378m0,19.133H8.378V22.133h6.378m0,19.133H8.378V34.889h6.378m0,19.133H8.378V47.644h6.378M33.889,15.756V3H2V60.4H65.778V15.756Z" transform="translate(524 1401.3)" fill="#4d4d4d"/>
  </g>
</svg>
