<svg xmlns="http://www.w3.org/2000/svg" width="64" height="64" viewBox="0 0 64 64">
  <g id="ico-credito-pessoal" transform="translate(-526 -1401)">
    <rect id="Retângulo_1770" data-name="Retângulo 1770" width="64" height="64" transform="translate(526 1401)" fill="#0099fa" opacity="0"/>
    <path id="Caminho_3393" data-name="Caminho 3393" d="M29.333,16.333A10.667,10.667,0,1,1,18.666,5.667,10.664,10.664,0,0,1,29.333,16.333m0,17.92v14.08H0V43c0-5.893,8.347-10.667,18.666-10.667a29.055,29.055,0,0,1,10.667,1.92M64,48.333H34.666V3H64V48.333M42.666,25.666a6.667,6.667,0,1,1,6.667,6.667,6.669,6.669,0,0,1-6.667-6.667m16-12a5.332,5.332,0,0,1-5.333-5.333h-8A5.315,5.315,0,0,1,40,13.667v24A5.332,5.332,0,0,1,45.333,43h8a5.349,5.349,0,0,1,5.333-5.333Z" transform="translate(526 1407.333)" fill="#4d4d4d"/>
  </g>
</svg>
