<svg xmlns="http://www.w3.org/2000/svg" width="22" height="22" viewBox="0 0 22 22">
  <g id="ico-bull-horn" transform="translate(-436 -2093)">
    <rect id="Retângulo_1775" data-name="Retângulo 1775" width="22" height="22" transform="translate(436 2093)" fill="#fff" opacity="0"/>
    <path id="Caminho_3397" data-name="Caminho 3397" d="M12,8H4a2,2,0,0,0-2,2v4a2,2,0,0,0,2,2H5v4a1,1,0,0,0,1,1H8a1,1,0,0,0,1-1V16h3l5,4V4L12,8m9.5,4A4.416,4.416,0,0,1,19,16V8A4.456,4.456,0,0,1,21.5,12Z" transform="translate(435.25 2091.5)" fill="#fff"/>
  </g>
</svg>
