<svg xmlns="http://www.w3.org/2000/svg" width="29" height="29" viewBox="0 0 29 29">
  <g id="ico-consignado" transform="translate(-526 -1401)">
    <rect id="Retângulo_1770" data-name="Retângulo 1770" width="29" height="29" transform="translate(526 1401)" fill="#0099fa" opacity="0"/>
    <path id="Caminho_3392" data-name="Caminho 3392" d="M25.119,20.34H22.23v2.89h2.89m0-8.67H22.23v2.89h2.89m2.89,8.67H16.45V23.23h2.89V20.34H16.45V17.45h2.89V14.56H16.45V11.67h11.56M13.56,8.78H10.67V5.89h2.89m0,8.67H10.67V11.67h2.89m0,8.67H10.67V17.45h2.89m0,8.67H10.67V23.23h2.89M7.78,8.78H4.89V5.89H7.78m0,8.67H4.89V11.67H7.78m0,8.67H4.89V17.45H7.78m0,8.67H4.89V23.23H7.78M16.45,8.78V3H2V29.009H30.9V8.78Z" transform="translate(524 1399.495)" fill="#0099fa"/>
  </g>
</svg>
