<svg xmlns="http://www.w3.org/2000/svg" width="146" height="50.734" viewBox="0 0 146 50.734">
  <g id="logo-pincred" transform="translate(-104 0.445)">
    <g id="Grupo_3718" data-name="Grupo 3718" transform="translate(104 -0.025)">
      <g id="Grupo_3570" data-name="Grupo 3570" transform="translate(0 0)">
        <path id="Subtração_1" data-name="Subtração 1" d="M5.838,30.376H.032L0,0H11.51a11.453,11.453,0,0,1,4.915,1.352A8.9,8.9,0,0,1,19.8,4.536a11.692,11.692,0,0,1,1.536,6.182c0,3.894-1.433,6.678-4.26,8.276a11.5,11.5,0,0,1-5.349,1.359c-.121,0-.2,0-.219,0H5.838V30.375ZM5.805,4.42V16H10.62a5.35,5.35,0,0,0,2.441-.828c1.113-.718,2.441-2.222,2.441-5.307,0-2.794-1.327-4.124-2.441-4.748A5.7,5.7,0,0,0,10.62,4.42Z" transform="translate(0 1.055)" fill="#fff"/>
        <path id="Caminho_2616" data-name="Caminho 2616" d="M1793.312,5348.188h5.442v21.965h-5.442Z" transform="translate(-1768.643 -5338.754)" fill="#fff"/>
        <ellipse id="Elipse_272" data-name="Elipse 272" cx="2.902" cy="2.902" rx="2.902" ry="2.902" transform="translate(24.34 0.792)" fill="#fff"/>
        <path id="Caminho_2617" data-name="Caminho 2617" d="M1804.219,5348.208v22.2h5.606v-16.227a6.451,6.451,0,0,1,5.046-1.913c3.679.753,3.826,3.726,3.826,3.726V5370.4h5.672v-14.414s-.4-5.539-5.409-7.553-9.136,1.452-9.136,1.452v-1.683Z" transform="translate(-1768.038 -5338.774)" fill="#fff"/>
        <path id="Caminho_2618" data-name="Caminho 2618" d="M1845.694,5351.355l-3.727,3.859a5.725,5.725,0,0,0-4.881-2.639,6.408,6.408,0,0,0-6.267,6.7,6.555,6.555,0,0,0,6.267,6.628,6.954,6.954,0,0,0,5.112-2.77l3.5,3.66a10.853,10.853,0,0,1-8.608,4.024,11.673,11.673,0,0,1-11.775-11.543c0-7.059,6.25-11.709,11.775-11.709A11.661,11.661,0,0,1,1845.694,5351.355Z" transform="translate(-1766.87 -5338.789)" fill="#fff"/>
        <path id="Caminho_2619" data-name="Caminho 2619" d="M1847.531,5348.221v22.031h5.442v-12.7a5.12,5.12,0,0,1,2.836-4.519c2.177-1.023,4.551,2.044,4.551,2.044l2.9-4.584s-2.869-2.9-5.441-2.9-4.849,2.9-4.849,2.9v-2.275Z" transform="translate(-1765.639 -5338.787)" fill="#fff"/>
        <path id="Subtração_2" data-name="Subtração 2" d="M12,23.35c-4.686,0-7.057-1.918-9.267-4.056A11.286,11.286,0,0,1,0,11.741C0,8.167,1.034,6.454,2.738,4.057A9.129,9.129,0,0,1,6.654,1.1,14.075,14.075,0,0,1,12,0a12.66,12.66,0,0,1,8.84,4.057A11.927,11.927,0,0,1,23.4,10.583a13.56,13.56,0,0,1-.087,3.335H5.706a7.715,7.715,0,0,0,4.815,4.451,5.951,5.951,0,0,0,1.542.2,9.4,9.4,0,0,0,5.317-2.014l3.464,3.463C20.669,20.158,16.566,23.35,12,23.35Zm-.164-18.5A5.925,5.925,0,0,0,6.788,7.124,5.667,5.667,0,0,0,5.771,9.4H17.743a5.454,5.454,0,0,0-.933-2.276A5.694,5.694,0,0,0,11.841,4.848Z" transform="translate(98.712 8.806)" fill="#fff"/>
        <path id="Subtração_3" data-name="Subtração 3" d="M10.633,32.026h0a10.121,10.121,0,0,1-4.5-1.155C1.777,28.164,0,25.116,0,20.35c0-5.3,2.347-7.866,6.134-10.291a7.172,7.172,0,0,1,3.933-1.05,14.353,14.353,0,0,1,5.6,1.314V0h5.507V31.531H15.667V30.078l0,0A7.261,7.261,0,0,1,10.633,32.026Zm.644-18.349a6.491,6.491,0,0,0-.756.044c-2.875.338-5.077,3.307-5.013,6.76.069,3.786,1.943,6.289,5.013,6.7a7.55,7.55,0,0,0,1,.066,6.8,6.8,0,0,0,4.244-1.418V15.039a9.057,9.057,0,0,0-4.487-1.362Z" transform="translate(124.735 0)" fill="#fff"/>
        <path id="Caminho_2624" data-name="Caminho 2624" d="M1833.344,5379.4l3.529-3.859a29.369,29.369,0,0,0,19.579,6.949,30.119,30.119,0,0,0,19.66-7.213l3.252,4.123a37.053,37.053,0,0,1-22.912,8.165A37.955,37.955,0,0,1,1833.344,5379.4Z" transform="translate(-1766.425 -5337.253)" fill="#fff"/>
      </g>
    </g>
    <rect id="Retângulo_1692" data-name="Retângulo 1692" width="146" height="50" transform="translate(104 -0.445)" fill="#fff" opacity="0"/>
  </g>
</svg>
