<svg xmlns="http://www.w3.org/2000/svg" width="150" height="52" viewBox="0 0 150 52">
  <g id="pincred-white" transform="translate(-103.682 0.445)">
    <g id="Grupo_3718" data-name="Grupo 3718" transform="translate(104.04 -0.015)">
      <g id="Grupo_3570" data-name="Grupo 3570" transform="translate(0 0)">
        <path id="Subtração_1" data-name="Subtração 1" d="M5.983,31.134H.033L0,0H11.8a11.739,11.739,0,0,1,5.037,1.386A9.121,9.121,0,0,1,20.3,4.649a11.984,11.984,0,0,1,1.574,6.337c0,3.991-1.469,6.845-4.366,8.483a11.787,11.787,0,0,1-5.483,1.393c-.124,0-.2,0-.224,0H5.983V31.133ZM5.95,4.53V16.395h4.935a5.483,5.483,0,0,0,2.5-.849c1.141-.736,2.5-2.277,2.5-5.439,0-2.864-1.36-4.227-2.5-4.867a5.841,5.841,0,0,0-2.5-.71Z" transform="translate(0 1.082)" fill="#fff"/>
        <path id="Caminho_2616" data-name="Caminho 2616" d="M1793.312,5348.188h5.578V5370.7h-5.578Z" transform="translate(-1768.027 -5338.519)" fill="#fff"/>
        <ellipse id="Elipse_272" data-name="Elipse 272" cx="2.975" cy="2.975" rx="2.975" ry="2.975" transform="translate(24.947 0.812)" fill="#fff"/>
        <path id="Caminho_2617" data-name="Caminho 2617" d="M1804.219,5348.218v22.75h5.746v-16.631a6.614,6.614,0,0,1,5.172-1.961c3.771.772,3.922,3.819,3.922,3.819v14.772h5.814V5356.2s-.406-5.678-5.543-7.742-9.364,1.489-9.364,1.489v-1.725Z" transform="translate(-1767.136 -5338.549)" fill="#fff"/>
        <path id="Caminho_2618" data-name="Caminho 2618" d="M1846.2,5351.45l-3.82,3.956a5.869,5.869,0,0,0-5-2.705,6.568,6.568,0,0,0-6.423,6.862,6.719,6.719,0,0,0,6.423,6.793,7.128,7.128,0,0,0,5.24-2.838l3.583,3.751a11.123,11.123,0,0,1-8.823,4.125,11.964,11.964,0,0,1-12.068-11.831c0-7.234,6.406-12,12.068-12A11.951,11.951,0,0,1,1846.2,5351.45Z" transform="translate(-1765.412 -5338.57)" fill="#fff"/>
        <path id="Caminho_2619" data-name="Caminho 2619" d="M1847.531,5348.236v22.581h5.577V5357.8a5.248,5.248,0,0,1,2.907-4.631c2.231-1.049,4.665,2.095,4.665,2.095l2.975-4.7s-2.941-2.975-5.577-2.975-4.97,2.975-4.97,2.975v-2.332Z" transform="translate(-1763.597 -5338.567)" fill="#fff"/>
        <path id="Subtração_2" data-name="Subtração 2" d="M12.3,23.933c-4.8,0-7.233-1.966-9.5-4.158A11.567,11.567,0,0,1,0,12.034C0,8.371,1.06,6.615,2.806,4.158A9.357,9.357,0,0,1,6.82,1.128,14.426,14.426,0,0,1,12.3,0a12.975,12.975,0,0,1,9.06,4.158,12.224,12.224,0,0,1,2.623,6.689,13.9,13.9,0,0,1-.089,3.418H5.848a7.907,7.907,0,0,0,4.935,4.562,6.1,6.1,0,0,0,1.58.2,9.632,9.632,0,0,0,5.45-2.064l3.551,3.549C21.185,20.661,16.979,23.933,12.3,23.933ZM12.136,4.969A6.073,6.073,0,0,0,6.957,7.3,5.809,5.809,0,0,0,5.915,9.635H18.186A5.59,5.59,0,0,0,17.229,7.3,5.836,5.836,0,0,0,12.136,4.969Z" transform="translate(101.174 9.026)" fill="#fff"/>
        <path id="Subtração_3" data-name="Subtração 3" d="M10.9,32.825h0a10.373,10.373,0,0,1-4.607-1.184C1.821,28.867,0,25.743,0,20.857,0,15.427,2.406,12.8,6.287,10.31a7.351,7.351,0,0,1,4.031-1.076,14.711,14.711,0,0,1,5.739,1.346V0H21.7V32.317H16.057V30.828l0,0A7.442,7.442,0,0,1,10.9,32.825Zm.66-18.807a6.653,6.653,0,0,0-.774.045c-2.947.346-5.2,3.39-5.138,6.929.071,3.88,1.992,6.446,5.138,6.863a7.738,7.738,0,0,0,1.025.068,6.967,6.967,0,0,0,4.35-1.454V15.414a9.283,9.283,0,0,0-4.6-1.4Z" transform="translate(127.846 0)" fill="#fff"/>
        <path id="Caminho_2624" data-name="Caminho 2624" d="M1833.344,5379.506l3.617-3.956a30.1,30.1,0,0,0,20.068,7.123,30.866,30.866,0,0,0,20.15-7.393l3.333,4.226a37.977,37.977,0,0,1-23.483,8.368A38.9,38.9,0,0,1,1833.344,5379.506Z" transform="translate(-1764.756 -5336.305)" fill="#fff"/>
      </g>
    </g>
    <rect id="Retângulo_1692" data-name="Retângulo 1692" width="150" height="52" transform="translate(103.682 -0.445)" fill="#fff" opacity="0"/>
  </g>
</svg>
